<svg viewBox="0 0 24 23" xmlns="http://www.w3.org/2000/svg" xmlns:xlink="http://www.w3.org/1999/xlink" width="24.000000" height="23.000000" fill="none">
	<rect id="IMAGE" width="24.000000" height="23.000000" x="0.000000" y="0.000000" />
	<path id="Vector" d="M23.625 11.375C23.625 5.09336 18.3357 0 11.8125 0C5.28926 0 0 5.09336 0 11.375C0 17.0523 4.31895 21.7582 9.9668 22.6124L9.9668 14.6641L6.96674 14.6641L6.96674 11.375L9.9668 11.375L9.9668 8.86895C9.9668 6.01859 11.7308 4.44285 14.4287 4.44285C15.7212 4.44285 17.0733 4.66527 17.0733 4.66527L17.0733 7.46484L15.583 7.46484C14.1165 7.46484 13.6577 8.34133 13.6577 9.24219L13.6577 11.375L16.9335 11.375L16.4104 14.6641L13.6582 14.6641L13.6582 22.6134C19.3061 21.7598 23.625 17.0539 23.625 11.375Z" fill="rgb(255,255,255)" fill-rule="evenodd" />
</svg>
