<svg viewBox="0 0 13.9251 10.2925" xmlns="http://www.w3.org/2000/svg" xmlns:xlink="http://www.w3.org/1999/xlink" width="13.925064" height="10.292480" fill="none" customFrame="#000000">
	<path id="Vector" d="M2.22873 9.62439C2.93003 9.32339 3.54219 8.86596 4.0652 8.25202C4.58821 7.63809 4.9032 7.01211 5.01018 6.3741C5.06961 6.03704 5.09933 5.74813 5.09933 5.50737C5.09933 5.23049 5.06961 5.00177 5.01018 4.8212C4.45151 5.41106 3.74426 5.70599 2.88843 5.70599C2.0326 5.70599 1.33724 5.4532 0.802342 4.9476C0.267447 4.44201 0 3.74381 0 2.853C1e-06 2.01034 0.285277 1.32418 0.855832 0.794508C1.4145 0.264838 2.12769 0 2.99541 0C4.18406 0 5.05178 0.433368 5.59856 1.3001C5.84818 1.67328 6.04431 2.13072 6.18695 2.67243C6.32959 3.22617 6.4009 3.79196 6.4009 4.36978C6.4009 5.63377 6.07997 6.78941 5.43809 7.83671C4.79622 8.88402 3.83935 9.70259 2.56749 10.2925L2.22873 9.62439ZM9.75296 9.62439C10.4543 9.32339 11.0664 8.86596 11.5894 8.25202C12.1124 7.63809 12.4274 7.01211 12.5344 6.3741C12.5938 6.03704 12.6236 5.74813 12.6236 5.50737C12.6236 5.23049 12.5938 5.00177 12.5344 4.8212C11.9757 5.41106 11.2685 5.70599 10.4127 5.70599C9.55678 5.70599 8.86142 5.4532 8.32653 4.9476C7.79163 4.44201 7.52418 3.74381 7.52418 2.853C7.52418 2.01034 7.80946 1.32418 8.38001 0.794508C8.93868 0.264838 9.65188 0 10.5196 0C11.7083 0 12.576 0.433368 13.1228 1.3001C13.3724 1.67328 13.5685 2.13072 13.7112 2.67243C13.8538 3.22617 13.9251 3.79196 13.9251 4.36978C13.9251 5.63377 13.6042 6.78941 12.9623 7.83671C12.3204 8.88402 11.3636 9.70259 10.0917 10.2925L9.75296 9.62439Z" fill="rgb(41,46,54)" fill-rule="nonzero" />
</svg>
