<svg viewBox="0 0 200 111" xmlns="http://www.w3.org/2000/svg" xmlns:xlink="http://www.w3.org/1999/xlink" width="200.000000" height="111.000000" fill="none">
	<rect id="IMAGE" width="200.000000" height="111.000000" x="0.000000" y="0.000000" />
	<path id="Vector" d="M57.5 53.1599C57.98 53.0799 58.34 53.2399 58.58 53.6399C58.86 53.9999 58.92 54.3999 58.76 54.8399C58.64 55.2399 58.34 55.4799 57.86 55.5599C56.62 55.7199 55.24 55.9399 53.72 56.2199C51.64 63.3399 48.38 69.8999 43.94 75.8999C39.5 81.8999 34.14 86.8999 27.86 90.8999C26.58 91.7399 25.56 92.3799 24.8 92.8199C24.04 93.2999 22.88 93.9599 21.32 94.7999C19.8 95.6799 18.44 96.3399 17.24 96.7799C16.04 97.2199 14.72 97.6399 13.28 98.0399C11.88 98.4799 10.54 98.6599 9.26003 98.5799C7.98003 98.5399 6.82002 98.2599 5.78002 97.7399C4.22002 96.9799 3.16002 95.9199 2.60002 94.5599C2.04002 93.2399 1.96002 91.8199 2.36002 90.2999C2.72002 88.7799 3.24002 87.3399 3.92002 85.9799C4.56002 84.6199 5.34002 83.3599 6.26002 82.1999C11.74 75.0399 18.44 69.0599 26.36 64.2599C34.28 59.4199 42.76 56.0599 51.8 54.1799C52.72 50.7399 53.36 47.2999 53.72 43.8599C54.08 40.3799 54.1 36.8399 53.78 33.2399C53.5 29.6399 52.86 26.2599 51.86 23.0999C50.86 19.9399 49.34 16.9799 47.3 14.2199C45.3 11.4599 42.88 9.17992 40.04 7.37992C37.88 6.01992 35.54 4.99992 33.02 4.31992C30.54 3.59992 28.04 3.23992 25.52 3.23992C23.04 3.23992 20.56 3.67992 18.08 4.55992C15.64 5.39992 13.44 6.63992 11.48 8.27992C7.64002 11.5199 5.12002 15.6199 3.92002 20.5799C2.72002 25.5399 3.10002 30.2999 5.06002 34.8599C5.26002 35.3399 5.22002 35.7599 4.94002 36.1199C4.66002 36.4399 4.30002 36.5999 3.86002 36.5999C3.42002 36.5599 3.10002 36.3199 2.90002 35.8799C1.66002 33.0399 0.980024 30.1199 0.860024 27.1199C0.740024 24.1199 1.10002 21.3199 1.94002 18.7199C2.78002 16.0799 4.06002 13.5999 5.78002 11.2799C7.50002 8.91991 9.48003 6.93991 11.72 5.33992C14 3.73992 16.58 2.53992 19.46 1.73992C22.34 0.899924 25.3 0.619923 28.34 0.899921C32.22 1.25992 35.74 2.27992 38.9 3.95992C42.1 5.63992 44.76 7.75992 46.88 10.3199C49 12.8399 50.78 15.7399 52.22 19.0199C53.7 22.2999 54.74 25.6999 55.34 29.2199C55.98 32.6999 56.28 36.2599 56.24 39.8999C56.16 44.4599 55.56 49.0399 54.44 53.6399C55.64 53.4399 56.66 53.2799 57.5 53.1599ZM48.02 64.6799C49.18 62.2799 50.2 59.6599 51.08 56.8199C42.28 58.7799 34.02 62.1399 26.3 66.8999C18.62 71.6199 12.4 77.4399 7.64002 84.3599C5.60002 87.2399 4.58002 89.4199 4.58002 90.8999C4.58002 91.9799 4.76002 92.8799 5.12002 93.5999C5.48002 94.3599 5.90002 94.8999 6.38002 95.2199C6.86002 95.5799 7.48002 95.7999 8.24002 95.8799C9.04002 95.9599 9.76002 95.9599 10.4 95.8799C11.04 95.7999 11.82 95.6199 12.74 95.3399C13.66 95.0999 14.34 94.8799 14.78 94.6799C15.22 94.5199 15.8 94.2999 16.52 94.0199C16.64 93.9799 16.74 93.9399 16.82 93.8999C21.26 92.0999 25.44 89.7999 29.36 86.9999C37.56 81.0399 43.78 73.5999 48.02 64.6799ZM65.8808 55.1999C67.7608 55.6799 69.0808 56.8399 69.8408 58.6799C70.6008 60.4799 70.6408 62.2999 69.9608 64.1399C69.3608 65.8999 68.4608 67.5199 67.2608 68.9999C66.0608 70.4799 64.7008 71.2599 63.1808 71.3399C61.6208 71.4199 60.4808 70.8799 59.7608 69.7199C59.0808 68.5599 58.8808 67.2199 59.1608 65.6999C59.7208 62.5799 61.3408 59.4599 64.0208 56.3399C64.1008 56.2599 64.2008 56.1799 64.3208 56.0999C64.6008 55.3399 65.1208 55.0399 65.8808 55.1999ZM61.9208 68.5799C62.6808 69.2599 63.8208 68.7999 65.3408 67.1999C67.1008 65.3599 68.0408 63.4399 68.1608 61.4399C68.2808 59.7199 67.5408 58.4999 65.9408 57.7799C65.6208 58.1399 65.2808 58.5799 64.9208 59.0999C64.5608 59.5799 64.1408 60.1799 63.6608 60.8999C63.1808 61.6199 62.7608 62.3399 62.4008 63.0599C62.0408 63.7799 61.7408 64.4999 61.5008 65.2199C61.2608 65.8999 61.1608 66.5399 61.2008 67.1399C61.2808 67.7399 61.5208 68.2199 61.9208 68.5799ZM90.3444 55.8599C90.7444 55.5799 91.1644 55.5399 91.6044 55.7399C92.0444 55.9399 92.2844 56.2399 92.3244 56.6399C92.4044 57.0399 92.2644 57.3999 91.9044 57.7199C88.9844 59.7599 86.3244 61.7399 83.9244 63.6599C85.0044 64.3399 85.8844 65.0199 86.5644 65.6999C87.2844 66.3399 87.9044 67.0799 88.4244 67.9199C88.9844 68.7599 89.1844 69.6799 89.0244 70.6799C88.8644 71.6799 88.3644 72.6799 87.5244 73.6799C86.6844 74.6799 85.5844 75.5999 84.2244 76.4399C82.8644 77.3199 81.4244 77.9799 79.9044 78.4199C78.4244 78.8999 77.0044 78.8799 75.6444 78.3599C74.2844 77.8399 73.3044 76.7799 72.7044 75.1799C71.7844 72.6599 73.1244 69.7599 76.7244 66.4799C77.6044 65.7199 78.6044 64.8599 79.7244 63.8999C79.6444 63.8599 79.1244 63.5799 78.1644 63.0599C77.2044 62.5399 76.5644 62.1799 76.2444 61.9799C75.9244 61.7799 75.4044 61.4399 74.6844 60.9599C74.0044 60.4799 73.4644 60.0199 73.0644 59.5799C72.6644 59.1399 72.3044 58.6599 71.9844 58.1399C70.7444 55.9799 71.4244 53.5599 74.0244 50.8799C76.2644 48.5599 78.8444 47.0599 81.7644 46.3799C84.9644 45.6199 86.9844 46.3199 87.8244 48.4799C87.9444 48.8399 88.0444 49.2399 88.1244 49.6799C88.1644 50.1599 88.0044 50.5399 87.6444 50.8199C87.2844 51.0599 86.8844 51.1199 86.4444 50.9999C86.0044 50.8399 85.7644 50.5199 85.7244 50.0399C85.4044 47.8399 83.3844 47.8599 79.6644 50.0999C78.0244 51.0599 76.7844 51.9599 75.9444 52.7999C75.2244 53.5199 74.7044 54.1399 74.3844 54.6599C74.1044 55.1799 74.0244 55.7599 74.1444 56.3999C74.3044 56.9999 74.7444 57.6399 75.4644 58.3199C75.8244 58.6399 76.2444 58.9799 76.7244 59.3399C77.2044 59.6599 77.6044 59.9199 77.9244 60.1199C78.2844 60.3199 78.7844 60.6199 79.4244 61.0199C80.1044 61.3799 80.5444 61.6199 80.7444 61.7399C80.8644 61.7799 81.0244 61.8799 81.2244 62.0399C81.4644 62.1599 81.6444 62.2399 81.7644 62.2799C84.4044 60.1599 87.2644 58.0199 90.3444 55.8599ZM84.9444 72.8399C85.4644 72.2799 85.8444 71.7399 86.0844 71.2199C86.3244 70.6999 86.4044 70.2199 86.3244 69.7799C86.2444 69.2999 86.0844 68.8599 85.8444 68.4599C85.6444 68.0599 85.3044 67.6599 84.8244 67.2599C84.3844 66.8599 83.9444 66.5199 83.5044 66.2399C83.0644 65.9199 82.5444 65.5799 81.9444 65.2199C80.8644 66.1399 79.8444 66.9999 78.8844 67.7999C78.7244 67.9599 78.4444 68.1999 78.0444 68.5199C77.6844 68.8399 77.3844 69.0999 77.1444 69.2999C76.9044 69.4999 76.6444 69.7799 76.3644 70.1399C76.1244 70.4599 75.9244 70.7799 75.7644 71.0999C74.8844 73.0599 74.9644 74.4599 76.0044 75.2999C77.0844 76.1399 78.5244 76.3199 80.3244 75.8399C81.8044 75.4799 83.3444 74.4799 84.9444 72.8399ZM114.273 55.5599C114.633 55.1999 115.013 55.1199 115.413 55.3199C115.813 55.4799 116.053 55.7799 116.133 56.2199C116.253 56.6199 116.153 57.0199 115.833 57.4199C107.593 65.8599 100.473 69.3599 94.4727 67.9199C92.3527 67.4399 90.7527 66.5199 89.6727 65.1599C88.5927 63.7599 88.1727 62.2199 88.4127 60.5399C88.6127 58.8199 89.3927 57.1799 90.7527 55.6199C91.8327 54.4599 93.2327 53.5199 94.9527 52.7999C97.5127 51.7599 98.7727 52.3999 98.7327 54.7199C98.7327 54.7599 98.7327 54.7999 98.7327 54.8399C98.6927 56.3999 97.7527 57.8799 95.9127 59.2799C94.0727 60.6799 92.4127 61.1399 90.9327 60.6599C90.7727 62.4599 91.5327 63.7999 93.2127 64.6799C94.8927 65.5599 96.7327 65.8199 98.7327 65.4599C101.573 64.9399 104.213 63.8399 106.653 62.1599C109.133 60.4399 111.673 58.2399 114.273 55.5599ZM95.2527 55.1999C94.6927 55.2399 94.0727 55.5799 93.3927 56.2199C92.7527 56.8599 92.1927 57.5599 91.7127 58.3199C92.5527 58.7199 93.5727 58.2399 94.7727 56.8799C95.5727 55.9599 95.7927 55.3999 95.4327 55.1999C95.3927 55.1999 95.3327 55.1999 95.2527 55.1999ZM127.665 58.4399C128.145 58.3599 128.505 58.4999 128.745 58.8599C129.025 59.2199 129.085 59.6199 128.925 60.0599C128.805 60.4999 128.505 60.7599 128.025 60.8399C123.905 61.4799 119.905 62.7599 116.025 64.6799C115.905 69.4799 115.865 74.3599 115.905 79.3199C116.585 79.8799 117.065 80.2999 117.345 80.5799C120.705 83.6999 122.865 88.7999 123.825 95.8799C124.185 98.5599 124.085 101.22 123.525 103.86C122.685 107.98 120.885 108.9 118.125 106.62C117.325 105.94 116.625 105 116.025 103.8C115.465 102.64 115.025 101.48 114.705 100.32C114.425 99.1599 114.185 97.7399 113.985 96.0599C113.825 94.3799 113.725 92.9799 113.685 91.8599C113.645 90.7799 113.605 89.3999 113.565 87.7199C113.525 86.0799 113.505 84.9999 113.505 84.4799C113.465 83.5999 113.425 82.4199 113.385 80.9399C109.305 77.8599 104.505 76.5799 98.9853 77.0999C98.3853 77.1399 97.9853 76.8799 97.7853 76.3199C97.5453 75.7999 97.6453 75.3399 98.0853 74.9399C103.565 69.7399 108.745 65.8199 113.625 63.1799C113.865 58.0999 114.225 52.9999 114.705 47.8799C114.745 47.3599 114.805 46.4199 114.885 45.0599C115.005 43.6999 115.105 42.4599 115.185 41.3399C115.265 40.1799 115.405 38.8199 115.605 37.2599C115.805 35.6599 116.045 34.2399 116.325 32.9999C116.605 31.7599 117.005 30.5199 117.525 29.2799C118.045 27.9999 118.625 26.9799 119.265 26.2199C119.945 25.4599 120.785 24.8999 121.785 24.5399C122.785 24.1399 123.885 24.0599 125.085 24.2999C125.565 24.4199 125.885 24.6999 126.045 25.1399C126.205 25.5799 126.165 25.9799 125.925 26.3399C125.685 26.6999 125.325 26.8199 124.845 26.6999C123.885 26.4999 122.985 26.8199 122.145 27.6599C121.345 28.4999 120.645 29.7599 120.045 31.4399C119.485 33.1199 118.965 35.0599 118.485 37.2599C118.045 39.4599 117.665 41.9799 117.345 44.8199C117.025 47.6199 116.765 50.3999 116.565 53.1599C116.405 55.9199 116.265 58.8599 116.145 61.9799C119.865 60.2199 123.705 59.0399 127.665 58.4399ZM121.725 101.76C122.045 98.1999 121.705 94.7999 120.705 91.5599C119.705 88.3599 118.125 85.5999 115.965 83.2799C116.045 86.2399 116.125 88.2999 116.205 89.4599C116.565 94.1399 117.065 97.7199 117.705 100.2C118.225 102.16 118.925 103.54 119.805 104.34C120.725 105.18 121.325 104.64 121.605 102.72L121.725 101.76ZM113.325 77.6399C113.285 73.6799 113.345 69.8199 113.505 66.0599C109.825 68.1399 105.985 70.9999 101.985 74.6399C106.225 74.7599 110.005 75.7599 113.325 77.6399ZM128.451 54.3599C128.651 53.9199 128.971 53.6799 129.411 53.6399C129.851 53.5999 130.211 53.7399 130.491 54.0599C130.811 54.3799 130.891 54.7799 130.731 55.2599C128.691 60.3799 127.711 65.5799 127.791 70.8599C127.791 71.5399 127.451 71.8799 126.771 71.8799C126.051 71.8799 125.611 71.5599 125.451 70.9199C125.411 70.7999 125.391 70.6799 125.391 70.5599C125.311 65.1599 126.331 59.7599 128.451 54.3599ZM132.471 47.4599C132.751 48.1399 132.551 48.6799 131.871 49.0799L127.611 51.5999C127.331 51.7599 127.031 51.7799 126.711 51.6599C126.391 51.4999 126.171 51.2799 126.051 50.9999C125.771 50.3599 125.971 49.8199 126.651 49.3799L130.911 46.8599C131.191 46.6999 131.491 46.6999 131.811 46.8599C132.131 46.9799 132.351 47.1799 132.471 47.4599ZM174.001 55.7399C174.321 55.3799 174.701 55.2399 175.141 55.3199C175.621 55.3999 175.941 55.6399 176.101 56.0399C176.301 56.3999 176.261 56.7799 175.981 57.1799C174.981 58.4199 173.801 59.6999 172.441 61.0199C171.081 62.3399 169.481 63.6599 167.641 64.9799C165.801 66.2599 164.001 67.2799 162.241 68.0399C160.481 68.7599 158.681 69.0399 156.841 68.8799C155.001 68.6799 153.421 67.8799 152.101 66.4799C151.381 65.6799 150.401 64.4999 149.161 62.9399C147.961 61.3799 147.081 60.2799 146.521 59.6399C146.161 59.2799 145.821 58.9999 145.501 58.7999C145.181 58.5599 144.901 58.3999 144.661 58.3199C144.421 58.2399 144.161 58.2599 143.881 58.3799C143.601 58.4999 143.361 58.6199 143.161 58.7399C143.001 58.8199 142.781 59.0199 142.501 59.3399C142.221 59.6599 142.021 59.9199 141.901 60.1199C141.781 60.3199 141.561 60.6599 141.241 61.1399C140.921 61.5799 140.701 61.8799 140.581 62.0399C140.381 62.3599 139.841 63.3799 138.961 65.0999C138.121 66.7799 137.241 68.2199 136.321 69.4199C135.441 70.5799 134.601 71.2199 133.801 71.3399C133.321 71.4199 132.941 71.2799 132.661 70.9199C132.381 70.5199 132.181 70.0999 132.061 69.6599C131.901 69.1799 131.841 68.6199 131.881 67.9799C131.921 67.2999 131.961 66.7799 132.001 66.4199C132.041 66.0599 132.141 65.4799 132.301 64.6799C132.461 63.8799 132.561 63.4199 132.601 63.2999C132.841 61.7799 133.301 59.6199 133.981 56.8199C134.661 53.9799 135.061 52.2799 135.181 51.7199C135.301 51.2799 135.581 50.9799 136.021 50.8199C136.461 50.6599 136.861 50.6999 137.221 50.9399C137.581 51.1799 137.701 51.5399 137.581 52.0199C137.381 52.8999 137.041 54.3599 136.561 56.3999C136.081 58.3999 135.721 59.9399 135.481 61.0199C135.001 63.3799 134.701 65.0199 134.581 65.9399C134.581 66.0599 134.581 66.2399 134.581 66.4799C134.901 65.8799 135.301 65.2399 135.781 64.5599C136.301 63.8799 136.841 63.1599 137.401 62.3999C137.961 61.6399 138.361 61.0599 138.601 60.6599C138.721 60.4999 138.881 60.2599 139.081 59.9399C139.321 59.6199 139.521 59.3399 139.681 59.0999C139.841 58.8599 140.021 58.5999 140.221 58.3199C140.461 57.9999 140.681 57.7199 140.881 57.4799C141.081 57.2399 141.301 56.9999 141.541 56.7599C141.781 56.5199 142.021 56.2999 142.261 56.0999C142.541 55.8999 142.801 55.7399 143.041 55.6199C143.681 55.4599 144.241 55.3799 144.721 55.3799C145.201 55.3799 145.721 55.5599 146.281 55.9199C146.841 56.2799 147.321 56.6599 147.721 57.0599C148.161 57.4599 148.621 57.9599 149.101 58.5599C149.621 59.1599 150.041 59.7199 150.361 60.2399C150.721 60.7199 151.081 61.2399 151.441 61.7999C151.841 62.3599 152.181 62.7999 152.461 63.1199C153.861 64.8399 155.121 65.8599 156.241 66.1799C157.361 66.4599 158.961 66.2199 161.041 65.4599C165.921 63.6599 170.241 60.4199 174.001 55.7399ZM197.71 55.5599C198.07 55.1999 198.45 55.1199 198.85 55.3199C199.25 55.4799 199.49 55.7799 199.57 56.2199C199.69 56.6199 199.59 57.0199 199.27 57.4199C191.03 65.8599 183.91 69.3599 177.91 67.9199C175.79 67.4399 174.19 66.5199 173.11 65.1599C172.03 63.7599 171.61 62.2199 171.85 60.5399C172.05 58.8199 172.83 57.1799 174.19 55.6199C175.27 54.4599 176.67 53.5199 178.39 52.7999C180.95 51.7599 182.21 52.3999 182.17 54.7199C182.17 54.7599 182.17 54.7999 182.17 54.8399C182.13 56.3999 181.19 57.8799 179.35 59.2799C177.51 60.6799 175.85 61.1399 174.37 60.6599C174.21 62.4599 174.97 63.7999 176.65 64.6799C178.33 65.5599 180.17 65.8199 182.17 65.4599C185.01 64.9399 187.65 63.8399 190.09 62.1599C192.57 60.4399 195.11 58.2399 197.71 55.5599ZM178.69 55.1999C178.13 55.2399 177.51 55.5799 176.83 56.2199C176.19 56.8599 175.63 57.5599 175.15 58.3199C175.99 58.7199 177.01 58.2399 178.21 56.8799C179.01 55.9599 179.23 55.3999 178.87 55.1999C178.83 55.1999 178.77 55.1999 178.69 55.1999Z" fill="rgb(41,46,54)" fill-rule="nonzero" />
</svg>
