<svg aria-hidden="true" style="position: absolute; width: 0; height: 0; overflow: hidden;" version="1.1" xmlns="http://www.w3.org/2000/svg" xmlns:xlink="http://www.w3.org/1999/xlink">
   <defs>
      <symbol id="icon-fb" viewBox="0 0 33 32">
         <path d="M32.87 15.826c0-8.74-7.359-15.826-16.435-15.826s-16.435 7.086-16.435 15.826c0 7.899 6.009 14.446 13.867 15.635v-11.058h-4.174v-4.576h4.174v-3.487c0-3.966 2.454-6.158 6.208-6.158 1.798 0 3.679 0.309 3.679 0.309v3.895h-2.073c-2.040 0-2.679 1.219-2.679 2.473v2.967h4.558l-0.728 4.576h-3.829v11.060c7.858-1.188 13.867-7.735 13.867-15.636z"></path>
      </symbol>
      <symbol id="icon-instagram" viewBox="0 0 33 32">
         <path d="M23.282 2.637c1.815 0.005 3.553 0.702 4.836 1.937s2.006 2.91 2.012 4.657v13.188c-0.005 1.747-0.729 3.422-2.012 4.657s-3.022 1.932-4.836 1.937h-13.695c-1.815-0.005-3.553-0.702-4.837-1.937s-2.006-2.91-2.012-4.657v-13.188c0.005-1.747 0.729-3.422 2.012-4.657s3.022-1.932 4.837-1.937h13.695zM23.282 0h-13.695c-5.273 0-9.587 4.154-9.587 9.232v13.188c0 5.078 4.314 9.232 9.587 9.232h13.695c5.273 0 9.587-4.154 9.587-9.232v-13.188c0-5.078-4.314-9.232-9.587-9.232z"></path>
         <path d="M25.337 9.232c-0.406 0-0.804-0.116-1.141-0.333s-0.601-0.526-0.757-0.888c-0.156-0.362-0.196-0.759-0.117-1.143s0.275-0.736 0.562-1.013 0.653-0.465 1.052-0.541c0.398-0.076 0.812-0.037 1.187 0.113s0.696 0.403 0.922 0.729c0.226 0.325 0.346 0.708 0.346 1.099 0.001 0.26-0.052 0.517-0.155 0.758s-0.254 0.459-0.445 0.642-0.418 0.329-0.667 0.429c-0.249 0.099-0.517 0.15-0.787 0.149zM16.435 10.551c1.084 0 2.143 0.309 3.044 0.889s1.603 1.404 2.018 2.368c0.415 0.964 0.523 2.025 0.312 3.048s-0.733 1.963-1.499 2.701-1.742 1.24-2.805 1.444c-1.063 0.204-2.164 0.099-3.165-0.3s-1.857-1.075-2.459-1.943c-0.602-0.868-0.923-1.888-0.923-2.931 0.002-1.399 0.579-2.74 1.606-3.729s2.42-1.545 3.872-1.547zM16.435 7.913c-1.625 0-3.214 0.464-4.565 1.334s-2.405 2.105-3.027 3.551c-0.622 1.446-0.785 3.037-0.468 4.572s1.1 2.945 2.249 4.052 2.613 1.86 4.207 2.166c1.594 0.305 3.246 0.149 4.748-0.45s2.785-1.613 3.688-2.914c0.903-1.301 1.385-2.831 1.385-4.396 0-2.099-0.866-4.111-2.407-5.595s-3.631-2.318-5.811-2.318z"></path>
      </symbol>
      <symbol id="icon-logo" viewBox="0 0 64 32">
         <path d="M32.17 27.016c-5.787 0-10.499-4.71-10.499-10.503s4.712-10.499 10.499-10.499 10.499 4.71 10.499 10.503c0 5.793-4.712 10.499-10.499 10.499zM32.17 6.349c-5.603 0-10.164 4.559-10.164 10.168s4.561 10.164 10.164 10.164c5.603 0 10.164-4.559 10.164-10.168s-4.561-10.164-10.164-10.164z"></path>
         <path d="M32.17 29.028c-0.848 0-1.696-0.087-2.52-0.255-0.804-0.164-1.595-0.409-2.349-0.727-0.744-0.315-1.458-0.704-2.125-1.153-0.663-0.446-1.283-0.962-1.85-1.529s-1.079-1.19-1.528-1.851c-0.044-0.067-0.027-0.157 0.040-0.201s0.158-0.027 0.201 0.040c0.436 0.647 0.938 1.257 1.491 1.81s1.163 1.056 1.81 1.492c0.653 0.443 1.35 0.821 2.074 1.126 0.737 0.312 1.508 0.55 2.292 0.711 1.608 0.329 3.314 0.329 4.926 0 0.784-0.161 1.555-0.399 2.292-0.711 0.724-0.305 1.421-0.687 2.074-1.126 0.647-0.439 1.257-0.939 1.81-1.492s1.056-1.16 1.491-1.81c0.044-0.067 0.134-0.084 0.201-0.040s0.084 0.134 0.040 0.201c-0.449 0.664-0.962 1.287-1.528 1.851-0.566 0.566-1.186 1.079-1.85 1.529-0.667 0.452-1.384 0.841-2.125 1.153-0.754 0.318-1.545 0.563-2.349 0.727-0.824 0.168-1.672 0.255-2.52 0.255z"></path>
         <path d="M42.421 9.745c-0.047 0-0.091-0.023-0.121-0.064-0.436-0.647-0.938-1.257-1.491-1.81s-1.16-1.056-1.81-1.492c-0.653-0.442-1.35-0.821-2.074-1.126-0.737-0.312-1.508-0.55-2.292-0.711-1.608-0.329-3.314-0.329-4.926 0-0.784 0.161-1.558 0.399-2.292 0.711-0.724 0.308-1.424 0.687-2.074 1.126-0.647 0.436-1.257 0.939-1.81 1.492s-1.056 1.163-1.491 1.81c-0.044 0.067-0.134 0.084-0.201 0.040s-0.084-0.134-0.040-0.201c0.449-0.664 0.962-1.287 1.528-1.851 0.566-0.567 1.19-1.079 1.85-1.529 0.667-0.453 1.384-0.838 2.125-1.153 0.754-0.318 1.545-0.563 2.349-0.731 1.649-0.339 3.391-0.339 5.040 0 0.804 0.164 1.595 0.409 2.349 0.731 0.741 0.315 1.458 0.701 2.125 1.153 0.663 0.449 1.287 0.962 1.85 1.529 0.566 0.567 1.079 1.19 1.528 1.85 0.044 0.067 0.027 0.158-0.040 0.201-0.023 0.013-0.050 0.023-0.081 0.023z"></path>
         <path d="M32.676 20.251c-0.754 0-1.488-0.161-2.182-0.476-0.519 0.241-1.069 0.362-1.635 0.362-2.151 0-3.904-1.753-3.904-3.905 0-1.83 1.283-3.423 3.063-3.812 0.932-1.716 2.708-2.776 4.658-2.776 2.791 0 5.094 2.162 5.281 4.941 0.881 0.546 1.424 1.515 1.424 2.551 0 1.656-1.347 3.004-3.003 3.004-0.513 0-1.019-0.134-1.471-0.389-0.704 0.332-1.458 0.5-2.232 0.5zM30.495 19.406l0.074 0.034c1.364 0.64 2.929 0.63 4.279-0.030l0.081-0.040 0.077 0.047c0.419 0.251 0.895 0.385 1.377 0.385 1.471 0 2.667-1.197 2.667-2.668 0-0.949-0.513-1.834-1.337-2.31l-0.080-0.047-0.003-0.091c-0.134-2.642-2.309-4.713-4.953-4.713-1.853 0-3.539 1.022-4.4 2.668l-0.037 0.070-0.077 0.017c-1.662 0.332-2.872 1.804-2.872 3.5 0 1.968 1.602 3.57 3.569 3.57 0.543 0 1.066-0.124 1.562-0.362l0.074-0.030z"></path>
         <path d="M36.101 23.382h-7.861v-3.627l0.188 0.023c0.164 0.020 0.302 0.030 0.432 0.030 0.543 0 1.066-0.124 1.562-0.362l0.074-0.040 0.074 0.033c1.364 0.64 2.929 0.63 4.279-0.030l0.081-0.040 0.077 0.047c0.291 0.174 0.61 0.292 0.955 0.349l0.141 0.023v3.594zM28.574 23.047h7.191v-2.977c-0.302-0.064-0.59-0.171-0.855-0.322-1.397 0.657-3.006 0.667-4.417 0.030-0.519 0.241-1.069 0.362-1.635 0.362-0.091 0-0.184-0.003-0.285-0.013v2.92z"></path>
         <path d="M28.836 15.085c-0.094 0-0.168-0.074-0.168-0.168 0-2.182 1.776-3.959 3.958-3.959 0.094 0 0.167 0.074 0.167 0.168s-0.074 0.168-0.167 0.168c-1.997 0-3.623 1.626-3.623 3.624 0 0.094-0.074 0.168-0.168 0.168z"></path>
         <path d="M64.173 11.991h-22.603c-0.094 0-0.167-0.074-0.167-0.168s0.074-0.168 0.167-0.168h22.603c0.094 0 0.168 0.074 0.168 0.168s-0.074 0.168-0.168 0.168z"></path>
         <path d="M64.173 21.374h-22.603c-0.094 0-0.167-0.074-0.167-0.168s0.074-0.168 0.167-0.168h22.603c0.094 0 0.168 0.074 0.168 0.168s-0.074 0.168-0.168 0.168z"></path>
         <path d="M22.771 11.991h-22.603c-0.094 0-0.168-0.074-0.168-0.168s0.074-0.168 0.168-0.168h22.603c0.094 0 0.168 0.074 0.168 0.168s-0.077 0.168-0.168 0.168z"></path>
         <path d="M22.771 21.374h-22.603c-0.094 0-0.168-0.074-0.168-0.168s0.074-0.168 0.168-0.168h22.603c0.094 0 0.168 0.074 0.168 0.168s-0.077 0.168-0.168 0.168z"></path>
         <path d="M12.788 17.341h-5.797c-0.456 0-0.828-0.372-0.828-0.828s0.372-0.828 0.828-0.828h6.253c0.094 0 0.168 0.074 0.168 0.168s-0.074 0.168-0.168 0.168h-6.253c-0.271 0-0.493 0.221-0.493 0.493s0.221 0.493 0.493 0.493h5.794c0.094 0 0.168 0.074 0.168 0.168s-0.074 0.168-0.164 0.168z"></path>
         <path d="M3.304 18.88c-1.759 0-3.194-1.059-3.194-2.363s1.431-2.363 3.194-2.363c1.759 0 3.194 1.059 3.194 2.363s-1.431 2.363-3.194 2.363zM3.304 14.485c-1.575 0-2.858 0.912-2.858 2.028s1.283 2.028 2.858 2.028 2.858-0.912 2.858-2.028c0-1.116-1.28-2.028-2.858-2.028z"></path>
         <path d="M56.978 17.341h-5.794c-0.094 0-0.168-0.074-0.168-0.168s0.074-0.168 0.168-0.168h5.794c0.271 0 0.493-0.221 0.493-0.493s-0.221-0.493-0.493-0.493h-6.253c-0.094 0-0.168-0.074-0.168-0.168s0.074-0.168 0.168-0.168h6.253c0.456 0 0.828 0.372 0.828 0.828s-0.372 0.828-0.828 0.828z"></path>
         <path d="M60.158 18.082h-1.119c-0.864 0-1.568-0.704-1.568-1.569s0.704-1.569 1.568-1.569h1.119v3.138zM59.039 15.283c-0.68 0-1.233 0.553-1.233 1.234s0.553 1.234 1.233 1.234h0.784v-2.464h-0.784v-0.003z"></path>
         <path d="M63.69 15.283h-3.696c-0.094 0-0.167-0.074-0.167-0.168s0.074-0.168 0.167-0.168h3.696c0.094 0 0.167 0.074 0.167 0.168s-0.077 0.168-0.167 0.168z"></path>
         <path d="M63.69 16.681h-3.696c-0.094 0-0.167-0.074-0.167-0.168s0.074-0.168 0.167-0.168h3.696c0.094 0 0.167 0.074 0.167 0.168s-0.077 0.168-0.167 0.168z"></path>
         <path d="M63.69 18.082h-3.696c-0.094 0-0.167-0.074-0.167-0.168s0.074-0.168 0.167-0.168h3.696c0.094 0 0.167 0.074 0.167 0.168s-0.077 0.168-0.167 0.168z"></path>
         <path d="M21.866 18.88h-2.929c-0.094 0-0.168-0.074-0.168-0.168s0.074-0.168 0.168-0.168h2.929c0.094 0 0.168 0.074 0.168 0.168s-0.074 0.168-0.168 0.168z"></path>
         <path d="M21.722 16.383h-5.559c-0.094 0-0.168-0.074-0.168-0.168s0.074-0.168 0.168-0.168h5.559c0.094 0 0.168 0.074 0.168 0.168s-0.074 0.168-0.168 0.168z"></path>
         <path d="M22.090 13.885h-2.929c-0.094 0-0.168-0.074-0.168-0.168s0.074-0.168 0.168-0.168h2.929c0.094 0 0.168 0.074 0.168 0.168s-0.074 0.168-0.168 0.168z"></path>
         <path d="M21.862 17.63h-4.35c-0.094 0-0.168-0.074-0.168-0.168s0.074-0.168 0.168-0.168h4.35c0.094 0 0.168 0.074 0.168 0.168s-0.077 0.168-0.168 0.168z"></path>
         <path d="M21.839 15.116h-4.35c-0.094 0-0.168-0.074-0.168-0.168s0.074-0.168 0.168-0.168h4.35c0.094 0 0.168 0.074 0.168 0.168s-0.074 0.168-0.168 0.168z"></path>
         <path d="M45.4 14.184h-2.929c-0.094 0-0.167-0.074-0.167-0.168s0.074-0.168 0.167-0.168h2.929c0.094 0 0.168 0.074 0.168 0.168s-0.074 0.168-0.168 0.168z"></path>
         <path d="M48.178 16.681h-5.559c-0.094 0-0.168-0.074-0.168-0.168s0.074-0.168 0.168-0.168h5.559c0.094 0 0.168 0.074 0.168 0.168s-0.074 0.168-0.168 0.168z"></path>
         <path d="M45.176 19.179h-2.929c-0.094 0-0.167-0.074-0.167-0.168s0.074-0.168 0.167-0.168h2.929c0.094 0 0.168 0.074 0.168 0.168s-0.074 0.168-0.168 0.168z"></path>
         <path d="M46.828 15.434h-4.35c-0.094 0-0.168-0.074-0.168-0.168s0.074-0.168 0.168-0.168h4.35c0.094 0 0.167 0.074 0.167 0.168s-0.074 0.168-0.167 0.168z"></path>
         <path d="M46.851 17.948h-4.35c-0.094 0-0.168-0.074-0.168-0.168s0.074-0.168 0.168-0.168h4.35c0.094 0 0.167 0.074 0.167 0.168s-0.077 0.168-0.167 0.168z"></path>
         <path d="M21.115 24.874l-1.672 0.429-0.265-0.419 0.677-0.801-1.022 0.255-0.265-0.419 1.103-1.328 0.255 0.406-0.71 0.841 1.072-0.268 0.228 0.362-0.717 0.845 1.079-0.275 0.238 0.372z"></path>
         <path d="M21.567 27.221l-0.261 0.245-0.905-0.959 1.196-1.126 0.885 0.939-0.261 0.245-0.566-0.603-0.208 0.191 0.499 0.53-0.251 0.238-0.499-0.53-0.218 0.204 0.59 0.627z"></path>
         <path d="M23.099 26.876l0.365 0.288-0.791 0.999 0.613 0.486-0.228 0.288-0.979-0.774 1.019-1.287z"></path>
         <path d="M24.205 29.584c-0.084-0.131-0.127-0.271-0.131-0.422s0.034-0.298 0.117-0.442c0.081-0.144 0.188-0.251 0.318-0.325s0.275-0.111 0.432-0.104c0.154 0.003 0.308 0.050 0.456 0.134 0.131 0.074 0.235 0.164 0.315 0.271s0.127 0.221 0.147 0.349l-0.392 0.084c-0.030-0.164-0.111-0.285-0.241-0.359-0.077-0.044-0.157-0.067-0.235-0.067-0.080 0-0.154 0.020-0.221 0.064s-0.124 0.104-0.171 0.184c-0.047 0.080-0.070 0.161-0.070 0.241s0.017 0.154 0.060 0.224c0.040 0.067 0.1 0.124 0.178 0.168 0.131 0.074 0.275 0.084 0.432 0.023l0.124 0.379c-0.117 0.047-0.245 0.064-0.375 0.050s-0.261-0.057-0.392-0.131c-0.154-0.084-0.271-0.191-0.352-0.322z"></path>
         <path d="M26.457 30.697c-0.104-0.117-0.174-0.248-0.204-0.399-0.030-0.148-0.017-0.298 0.037-0.453s0.141-0.278 0.261-0.372c0.117-0.094 0.255-0.154 0.409-0.178s0.315-0.003 0.479 0.054c0.164 0.057 0.298 0.148 0.402 0.261 0.104 0.117 0.174 0.248 0.204 0.399s0.017 0.298-0.037 0.453-0.141 0.278-0.261 0.372c-0.117 0.097-0.255 0.154-0.409 0.178s-0.315 0.003-0.476-0.054c-0.168-0.060-0.302-0.148-0.405-0.261zM27.221 30.617c0.077-0.013 0.144-0.047 0.208-0.101 0.060-0.054 0.107-0.124 0.137-0.211s0.040-0.171 0.027-0.251-0.044-0.151-0.094-0.208c-0.050-0.057-0.114-0.104-0.191-0.131s-0.154-0.034-0.231-0.020-0.144 0.047-0.208 0.101c-0.064 0.054-0.107 0.124-0.137 0.211s-0.040 0.171-0.027 0.252c0.013 0.080 0.044 0.151 0.094 0.211s0.114 0.104 0.191 0.131c0.077 0.027 0.154 0.030 0.231 0.017z"></path>
         <path d="M30.247 31.733l0.127-0.861-0.526 0.637-0.204-0.030-0.312-0.741-0.131 0.838-0.426-0.067 0.251-1.622 0.379 0.057 0.426 1.026 0.7-0.851 0.379 0.057-0.245 1.623-0.419-0.064z"></path>
         <path d="M33.125 31.458l0.007 0.359-1.317 0.027-0.034-1.643 1.287-0.027 0.007 0.359-0.828 0.017 0.007 0.278 0.731-0.017 0.007 0.349-0.73 0.017 0.007 0.302 0.858-0.020z"></path>
         <path d="M35.588 30.134l-0.486 0.131-0.097-0.355 1.421-0.382 0.097 0.355-0.486 0.131 0.332 1.23-0.449 0.121-0.332-1.23z"></path>
         <path d="M38.058 30.573c-0.157-0.010-0.298-0.057-0.422-0.144-0.127-0.084-0.221-0.201-0.288-0.349s-0.090-0.298-0.074-0.449c0.017-0.151 0.074-0.288 0.171-0.412s0.221-0.221 0.379-0.295c0.157-0.074 0.315-0.104 0.472-0.094s0.298 0.057 0.422 0.144c0.127 0.087 0.221 0.201 0.288 0.352s0.091 0.298 0.074 0.449c-0.017 0.151-0.074 0.288-0.171 0.412s-0.221 0.221-0.382 0.295c-0.154 0.070-0.312 0.101-0.469 0.091zM38.551 29.983c0.044-0.064 0.070-0.134 0.077-0.218 0.007-0.081-0.010-0.164-0.047-0.248s-0.090-0.151-0.154-0.198c-0.064-0.047-0.138-0.077-0.214-0.084s-0.154 0.007-0.228 0.040c-0.077 0.034-0.137 0.084-0.181 0.148s-0.070 0.134-0.077 0.218c-0.007 0.084 0.010 0.164 0.047 0.248s0.091 0.151 0.154 0.198c0.064 0.047 0.137 0.077 0.214 0.084s0.154-0.007 0.228-0.040c0.077-0.034 0.137-0.084 0.181-0.147z"></path>
         <path d="M41.67 28.441c-0.154 0.034-0.302 0.023-0.446-0.023s-0.268-0.134-0.372-0.258c-0.104-0.124-0.167-0.262-0.191-0.412s-0.007-0.298 0.054-0.443c0.057-0.144 0.154-0.275 0.288-0.386s0.275-0.184 0.429-0.218c0.154-0.034 0.302-0.027 0.446 0.023s0.268 0.134 0.372 0.258c0.104 0.124 0.167 0.261 0.191 0.412s0.007 0.298-0.054 0.443c-0.057 0.144-0.154 0.275-0.288 0.386-0.131 0.114-0.275 0.184-0.429 0.218zM41.986 27.74c0.027-0.074 0.030-0.151 0.017-0.228-0.017-0.080-0.054-0.154-0.114-0.224s-0.127-0.121-0.201-0.151c-0.074-0.030-0.151-0.037-0.228-0.023s-0.148 0.047-0.211 0.101c-0.064 0.054-0.107 0.117-0.134 0.191s-0.030 0.151-0.017 0.228c0.017 0.081 0.054 0.154 0.114 0.225s0.127 0.121 0.201 0.151c0.077 0.030 0.151 0.037 0.228 0.023s0.147-0.047 0.211-0.101c0.064-0.054 0.111-0.117 0.134-0.191z"></path>
         <path d="M43.52 26.587c-0.188 0.020-0.375-0.050-0.563-0.208l-0.697-0.583 0.298-0.355 0.687 0.573c0.201 0.168 0.369 0.171 0.503 0.013 0.131-0.158 0.097-0.322-0.104-0.49l-0.687-0.573 0.295-0.352 0.697 0.583c0.188 0.157 0.288 0.328 0.305 0.52s-0.054 0.379-0.211 0.563c-0.164 0.188-0.335 0.288-0.523 0.308z"></path>
         <path d="M45.132 23.899l-0.127 0.218 0.375 0.221-0.235 0.402-1.418-0.828 0.379-0.65c0.074-0.128 0.161-0.228 0.258-0.298s0.201-0.107 0.312-0.114c0.107-0.007 0.218 0.023 0.322 0.084s0.178 0.137 0.228 0.228c0.047 0.094 0.067 0.194 0.060 0.312l0.623-0.040-0.251 0.429-0.526 0.037zM44.572 23.319c-0.060 0.020-0.114 0.074-0.164 0.154l-0.131 0.225 0.416 0.241 0.131-0.224c0.047-0.084 0.067-0.154 0.054-0.218-0.010-0.064-0.050-0.114-0.117-0.151s-0.127-0.047-0.188-0.027z"></path>
         <path d="M18.716 7.465c0.020 0.164 0.1 0.342 0.248 0.53 0.007 0.003 0.003 0.013-0.007 0.027s-0.020 0.017-0.027 0.013c-0.087-0.080-0.201-0.181-0.342-0.308-0.141-0.124-0.248-0.215-0.322-0.272-0.013-0.010-0.013-0.020-0.003-0.034s0.020-0.017 0.034-0.007c0.054 0.040 0.131-0.007 0.231-0.144 0.164-0.205 0.349-0.443 0.56-0.724 0.107-0.144 0.218-0.295 0.332-0.459l0.181-0.251c0.070-0.091 0.114-0.164 0.134-0.215s0.017-0.097-0.010-0.137c-0.007-0.010-0.007-0.020 0-0.034 0.010-0.013 0.020-0.013 0.027-0.007 0.070 0.064 0.178 0.158 0.325 0.278s0.268 0.218 0.362 0.288c0.007 0.007 0.007 0.013-0.003 0.027s-0.020 0.020-0.027 0.017c-0.204-0.114-0.385-0.161-0.54-0.137s-0.292 0.111-0.405 0.265c-0.050 0.067-0.084 0.124-0.094 0.164-0.013 0.040-0.007 0.080 0.013 0.114 0.023 0.034 0.067 0.074 0.131 0.124l1.676 1.257c0.074 0.057 0.134 0.090 0.181 0.101 0.044 0.010 0.091 0 0.134-0.037 0.044-0.034 0.104-0.101 0.174-0.194 0.007-0.007 0.017-0.007 0.030 0.007 0.013 0.010 0.020 0.020 0.013 0.027-0.064 0.084-0.114 0.151-0.154 0.198l-0.228 0.295-0.208 0.285c-0.037 0.054-0.087 0.124-0.154 0.215-0.003 0.003-0.013 0.003-0.027-0.010s-0.020-0.020-0.017-0.023c0.070-0.094 0.117-0.168 0.137-0.225 0.020-0.054 0.020-0.101-0.003-0.144s-0.070-0.091-0.144-0.144l-1.682-1.26c-0.064-0.047-0.114-0.077-0.151-0.084-0.037-0.010-0.074-0.003-0.111 0.020s-0.077 0.067-0.127 0.131c-0.111 0.151-0.154 0.305-0.137 0.469z"></path>
         <path d="M24.617 5.002c0.010 0.013 0.013 0.023 0.007 0.030-0.077 0.067-0.144 0.121-0.194 0.158l-0.255 0.211-0.292 0.251c-0.040 0.037-0.094 0.087-0.164 0.144-0.007 0.007-0.017 0.003-0.027-0.013-0.010-0.013-0.013-0.023-0.007-0.030 0.087-0.074 0.148-0.134 0.178-0.178s0.037-0.091 0.023-0.134c-0.013-0.044-0.050-0.101-0.111-0.174l-0.677-0.801-1.19 1.006 0.677 0.801c0.057 0.070 0.11 0.114 0.151 0.137 0.040 0.020 0.087 0.020 0.137 0 0.050-0.023 0.121-0.070 0.208-0.144 0.003-0.003 0.013 0 0.023 0.013 0.013 0.013 0.017 0.023 0.010 0.027-0.077 0.067-0.141 0.117-0.188 0.151l-0.292 0.241-0.251 0.218c-0.040 0.040-0.104 0.094-0.181 0.158-0.003 0.003-0.013-0-0.023-0.013s-0.013-0.023-0.010-0.027c0.084-0.070 0.141-0.127 0.168-0.174 0.030-0.044 0.037-0.091 0.023-0.134-0.013-0.047-0.050-0.104-0.111-0.171l-1.357-1.606c-0.060-0.070-0.111-0.114-0.151-0.134s-0.087-0.020-0.138 0c-0.050 0.020-0.114 0.064-0.198 0.134-0.003 0.003-0.013 0-0.023-0.013-0.013-0.013-0.017-0.023-0.010-0.027l0.188-0.151c0.11-0.084 0.194-0.154 0.255-0.205 0.080-0.067 0.174-0.151 0.282-0.251l0.181-0.158c0.003-0.003 0.013 0 0.023 0.013s0.013 0.023 0.010 0.027c-0.087 0.074-0.144 0.134-0.171 0.181-0.030 0.047-0.037 0.094-0.023 0.141s0.050 0.104 0.107 0.174l0.6 0.707 1.19-1.006-0.6-0.707c-0.057-0.070-0.111-0.114-0.151-0.137-0.044-0.020-0.091-0.023-0.141-0.003s-0.121 0.067-0.208 0.141c-0.007 0.007-0.017 0.003-0.027-0.013-0.013-0.013-0.013-0.023-0.007-0.030l0.168-0.137c0.114-0.091 0.214-0.171 0.302-0.241 0.064-0.054 0.144-0.127 0.248-0.221l0.188-0.164c0.007-0.007 0.017-0.003 0.027 0.013 0.013 0.013 0.013 0.023 0.007 0.030-0.084 0.070-0.137 0.127-0.168 0.174-0.027 0.044-0.034 0.091-0.020 0.134s0.050 0.101 0.107 0.171l1.357 1.606c0.057 0.070 0.111 0.114 0.151 0.137 0.044 0.023 0.087 0.023 0.134 0 0.047-0.020 0.114-0.067 0.198-0.137 0.017-0.010 0.027-0.007 0.037 0.007z"></path>
         <path d="M26.282 3.369c0.007-0.003 0.017-0.007 0.027-0.007s0.013 0.003 0.017 0.003c0.084 0.218 0.168 0.409 0.258 0.58 0.010 0.020 0.017 0.040 0.013 0.054s-0.017 0.027-0.040 0.040l-1.739 0.932c-0.007 0.003-0.017 0-0.023-0.017-0.010-0.017-0.010-0.027 0-0.030 0.090-0.050 0.154-0.091 0.188-0.127s0.047-0.077 0.044-0.124c-0.003-0.047-0.030-0.111-0.074-0.191l-0.992-1.854c-0.044-0.080-0.081-0.134-0.117-0.164-0.034-0.030-0.077-0.040-0.128-0.034-0.050 0.010-0.12 0.037-0.208 0.084-0.007 0.003-0.017 0-0.023-0.017-0.010-0.017-0.010-0.027 0-0.030l1.666-0.892c0.027-0.013 0.047-0.010 0.060 0.013l0.288 0.516c0.003 0.007-0.003 0.013-0.017 0.023s-0.023 0.013-0.030 0.007c-0.228-0.272-0.493-0.322-0.801-0.158l-0.161 0.087c-0.097 0.050-0.154 0.104-0.178 0.161-0.020 0.057-0.010 0.127 0.034 0.208l0.439 0.818 0.385-0.208c0.295-0.158 0.389-0.335 0.282-0.533-0.003-0.007 0-0.017 0.017-0.023s0.023-0.007 0.027 0l0.184 0.352 0.104 0.188c0.050 0.084 0.090 0.151 0.12 0.204 0.003 0.007-0.003 0.013-0.020 0.020-0.017 0.010-0.027 0.010-0.027 0.007-0.124-0.231-0.335-0.265-0.633-0.104l-0.392 0.198 0.486 0.908c0.047 0.087 0.097 0.141 0.147 0.158 0.054 0.017 0.121 0.003 0.204-0.044l0.198-0.104c0.358-0.191 0.493-0.486 0.402-0.885-0.003-0.007 0.003-0.010 0.013-0.017z"></path>
         <path d="M27.559 0.929c-0.091 0.137-0.141 0.325-0.151 0.563 0 0.007-0.007 0.010-0.023 0.013s-0.027 0-0.027-0.007c-0.013-0.117-0.037-0.268-0.064-0.453s-0.050-0.322-0.074-0.416c-0.003-0.013 0.003-0.023 0.020-0.027s0.027 0 0.030 0.017c0.017 0.064 0.104 0.077 0.271 0.040 0.255-0.050 0.553-0.114 0.891-0.194 0.174-0.040 0.359-0.087 0.553-0.137l0.298-0.074c0.114-0.027 0.194-0.054 0.241-0.080s0.074-0.064 0.080-0.111c0-0.013 0.007-0.020 0.023-0.023 0.013-0.003 0.023 0 0.027 0.013 0.013 0.094 0.037 0.235 0.070 0.422s0.064 0.339 0.090 0.456c0.003 0.010-0.003 0.017-0.020 0.020s-0.027 0-0.034-0.007c-0.084-0.221-0.191-0.372-0.325-0.453-0.134-0.084-0.295-0.101-0.479-0.060-0.084 0.020-0.141 0.040-0.178 0.064s-0.057 0.057-0.060 0.097c-0.003 0.040 0.003 0.101 0.020 0.181l0.473 2.042c0.020 0.091 0.047 0.154 0.074 0.194 0.027 0.037 0.070 0.057 0.124 0.060 0.057 0.003 0.144-0.010 0.258-0.037 0.010-0.003 0.013 0.007 0.020 0.023 0.003 0.017 0 0.027-0.007 0.030-0.104 0.023-0.184 0.040-0.245 0.054l-0.365 0.080-0.345 0.084c-0.060 0.017-0.147 0.040-0.255 0.064-0.007 0-0.010-0.007-0.013-0.023s-0.003-0.027 0.003-0.027c0.114-0.027 0.198-0.054 0.248-0.080s0.080-0.064 0.090-0.111 0.003-0.114-0.017-0.204l-0.476-2.048c-0.017-0.077-0.037-0.131-0.060-0.164s-0.057-0.050-0.097-0.057c-0.040-0.007-0.104 0-0.181 0.020-0.184 0.027-0.318 0.117-0.412 0.255z"></path>
         <path d="M33.29 2.796c0 0.017-0.007 0.027-0.023 0.027-0.057 0.003-0.151 0.003-0.278 0s-0.221 0-0.278 0c-0.077 0.003-0.164 0.010-0.268 0.017-0.104 0.010-0.181 0.017-0.241 0.017-0.013 0-0.020-0.010-0.020-0.027s0.007-0.027 0.017-0.027c0.087-0.003 0.151-0.017 0.191-0.037s0.060-0.054 0.057-0.101c-0.003-0.047-0.030-0.121-0.084-0.228l-0.526-0.979-0.821 0.027-0.322 0.798c-0.037 0.091-0.054 0.174-0.050 0.248 0.003 0.107 0.043 0.184 0.12 0.238 0.077 0.050 0.184 0.077 0.322 0.070 0.013 0 0.023 0.007 0.023 0.027 0 0.017-0.007 0.027-0.020 0.027-0.054 0.003-0.134 0.003-0.238 0-0.114-0.003-0.214 0-0.302 0-0.080 0.003-0.178 0.010-0.285 0.020-0.097 0.010-0.178 0.017-0.241 0.017-0.013 0-0.023-0.007-0.023-0.027 0-0.017 0.007-0.027 0.023-0.027 0.084-0.003 0.154-0.023 0.211-0.057 0.057-0.037 0.11-0.097 0.161-0.184 0.054-0.087 0.11-0.218 0.181-0.392l0.898-2.233c0.013-0.003 0.027-0.010 0.050-0.010 0.020 0 0.034 0.003 0.037 0.013l1.19 2.206c0.114 0.215 0.208 0.362 0.282 0.439s0.151 0.114 0.235 0.111c0.013 0 0.020 0.007 0.023 0.027zM31.064 1.374l0.717-0.023-0.402-0.751-0.315 0.774z"></path>
         <path d="M34.278 0.959c0.040 0.094 0.097 0.178 0.171 0.255 0.070 0.077 0.171 0.168 0.298 0.278 0.137 0.121 0.245 0.221 0.322 0.305s0.137 0.181 0.184 0.292c0.043 0.111 0.057 0.231 0.033 0.365-0.023 0.154-0.087 0.282-0.184 0.389s-0.224 0.181-0.382 0.225c-0.157 0.044-0.328 0.050-0.513 0.020-0.127-0.020-0.251-0.057-0.379-0.111s-0.221-0.111-0.285-0.171c-0.023-0.023-0.034-0.054-0.030-0.094l0.084-0.687v-0.003c0.003-0.013 0.010-0.017 0.027-0.017 0.013 0 0.023 0.007 0.023 0.020 0.057 0.265 0.137 0.486 0.241 0.664 0.1 0.178 0.251 0.285 0.449 0.315 0.127 0.020 0.241 0.003 0.338-0.054s0.161-0.168 0.188-0.332c0.020-0.131 0.010-0.251-0.030-0.359s-0.101-0.201-0.174-0.282-0.178-0.178-0.308-0.298c-0.127-0.117-0.228-0.211-0.298-0.292s-0.127-0.168-0.167-0.272-0.054-0.218-0.034-0.345c0.027-0.154 0.091-0.278 0.194-0.372s0.231-0.154 0.379-0.184c0.147-0.030 0.298-0.034 0.449-0.007 0.1 0.017 0.201 0.044 0.298 0.077 0.097 0.037 0.181 0.074 0.245 0.114 0.027 0.013 0.040 0.027 0.047 0.044 0.007 0.013 0.010 0.034 0.007 0.054l-0.084 0.613c0 0.010-0.010 0.013-0.027 0.017s-0.027-0.003-0.027-0.017c-0.030-0.191-0.084-0.369-0.161-0.533s-0.214-0.261-0.416-0.295c-0.134-0.020-0.248 0-0.339 0.064s-0.147 0.164-0.171 0.298c-0.023 0.117-0.010 0.218 0.030 0.315z"></path>
         <path d="M36.624 0.915c-0.151 0.067-0.295 0.198-0.432 0.392-0.003 0.007-0.010 0.007-0.027 0s-0.020-0.013-0.020-0.020c0.050-0.107 0.114-0.245 0.194-0.416s0.131-0.298 0.164-0.389c0.007-0.013 0.017-0.020 0.030-0.013 0.017 0.007 0.020 0.017 0.017 0.030-0.023 0.064 0.047 0.124 0.204 0.181 0.241 0.097 0.526 0.205 0.854 0.322 0.167 0.060 0.348 0.121 0.536 0.184l0.292 0.101c0.107 0.040 0.191 0.060 0.245 0.064s0.097-0.013 0.127-0.050c0.007-0.010 0.017-0.013 0.030-0.007s0.020 0.013 0.017 0.023c-0.040 0.084-0.097 0.218-0.171 0.392-0.074 0.178-0.131 0.322-0.171 0.432-0.003 0.010-0.013 0.010-0.027 0.003-0.017-0.007-0.023-0.013-0.023-0.023 0.050-0.231 0.040-0.416-0.027-0.556s-0.191-0.245-0.372-0.308c-0.080-0.030-0.141-0.044-0.184-0.044s-0.077 0.017-0.104 0.047c-0.027 0.030-0.054 0.084-0.080 0.161l-0.71 1.971c-0.030 0.087-0.047 0.154-0.044 0.201s0.027 0.084 0.074 0.117c0.047 0.034 0.124 0.070 0.238 0.111 0.010 0.003 0.010 0.013 0.003 0.030s-0.013 0.023-0.023 0.020c-0.101-0.037-0.178-0.067-0.235-0.091l-0.349-0.131-0.335-0.117c-0.060-0.020-0.144-0.047-0.251-0.084-0.007-0.003-0.007-0.013 0-0.030s0.013-0.023 0.017-0.023c0.111 0.040 0.194 0.064 0.255 0.067 0.057 0.003 0.104-0.010 0.137-0.044s0.067-0.094 0.097-0.181l0.714-1.981c0.027-0.074 0.040-0.131 0.037-0.171s-0.020-0.074-0.050-0.101c-0.033-0.027-0.087-0.054-0.164-0.084-0.168-0.054-0.332-0.054-0.483 0.013z"></path>
         <path d="M40.179 4.633c0.007 0.003 0.013 0.010 0.017 0.020s0.007 0.013 0.003 0.017c-0.144 0.184-0.265 0.355-0.362 0.52-0.013 0.020-0.023 0.034-0.037 0.037s-0.030 0-0.054-0.013l-1.699-1.002c-0.007-0.003-0.007-0.013 0.003-0.030s0.017-0.020 0.027-0.017c0.087 0.054 0.157 0.084 0.204 0.094s0.091 0 0.127-0.027c0.037-0.030 0.077-0.084 0.124-0.161l1.069-1.814c0.047-0.077 0.074-0.141 0.080-0.184s-0.007-0.087-0.040-0.127-0.094-0.084-0.178-0.134c-0.007-0.003-0.007-0.013 0.003-0.030s0.017-0.020 0.027-0.017l1.629 0.962c0.027 0.017 0.034 0.034 0.017 0.057l-0.291 0.513c-0.003 0.007-0.013 0.003-0.027 0-0.017-0.007-0.023-0.013-0.020-0.023 0.114-0.335 0.020-0.59-0.282-0.768l-0.157-0.091c-0.094-0.057-0.171-0.077-0.228-0.067-0.060 0.010-0.114 0.057-0.161 0.137l-0.472 0.798 0.375 0.221c0.288 0.171 0.489 0.158 0.6-0.037 0.003-0.007 0.013-0.007 0.030 0 0.013 0.010 0.020 0.017 0.013 0.023l-0.204 0.339-0.104 0.188c-0.044 0.087-0.080 0.158-0.111 0.208-0.003 0.007-0.013 0.003-0.027-0.007-0.017-0.010-0.023-0.017-0.020-0.020 0.131-0.225 0.054-0.422-0.238-0.597l-0.372-0.218-0.523 0.888c-0.050 0.087-0.070 0.154-0.057 0.208s0.060 0.104 0.144 0.154l0.191 0.114c0.349 0.208 0.67 0.168 0.965-0.117-0.003-0.003 0.003 0 0.013 0.003z"></path>
         <path d="M42.378 7.432c-0.013 0.013-0.023 0.013-0.037 0.003-0.044-0.040-0.111-0.104-0.201-0.191-0.090-0.091-0.157-0.154-0.201-0.194-0.057-0.050-0.124-0.107-0.204-0.174-0.080-0.064-0.141-0.117-0.184-0.154-0.010-0.007-0.007-0.020 0.003-0.034 0.013-0.013 0.023-0.017 0.034-0.007 0.064 0.060 0.121 0.094 0.164 0.107s0.080 0.003 0.11-0.030c0.030-0.034 0.064-0.107 0.097-0.225l0.302-1.069-0.61-0.553-0.788 0.349c-0.090 0.040-0.161 0.087-0.208 0.144-0.070 0.077-0.097 0.164-0.077 0.255s0.080 0.181 0.181 0.275c0.010 0.010 0.010 0.023 0 0.037-0.013 0.013-0.023 0.013-0.034 0.003-0.040-0.037-0.097-0.090-0.171-0.164-0.080-0.080-0.154-0.151-0.214-0.208-0.060-0.054-0.134-0.117-0.218-0.184-0.077-0.060-0.137-0.111-0.184-0.154-0.010-0.010-0.010-0.023 0-0.037 0.013-0.013 0.023-0.017 0.034-0.007 0.064 0.057 0.127 0.094 0.191 0.107s0.147 0.007 0.245-0.020c0.097-0.027 0.231-0.080 0.402-0.154l2.198-0.976c0.010-0.003 0.023 0.003 0.040 0.017s0.020 0.027 0.017 0.034l-0.68 2.414c-0.067 0.235-0.101 0.402-0.104 0.51 0 0.107 0.027 0.188 0.091 0.245 0.017 0.010 0.017 0.023 0.007 0.037zM41.768 4.864l0.533 0.483 0.231-0.818-0.764 0.335z"></path>
         <path d="M44.385 5.974c-0.164-0.027-0.355 0-0.576 0.087-0.003 0.003-0.013 0-0.023-0.013s-0.010-0.023-0.003-0.027c0.101-0.060 0.231-0.141 0.392-0.241 0.157-0.101 0.275-0.178 0.348-0.235 0.013-0.010 0.023-0.007 0.034 0.007s0.010 0.023-0.003 0.034c-0.054 0.040-0.030 0.127 0.070 0.265 0.147 0.215 0.328 0.463 0.536 0.741 0.107 0.144 0.221 0.295 0.348 0.449l0.188 0.245c0.070 0.094 0.124 0.154 0.167 0.188s0.087 0.044 0.134 0.027c0.010-0.003 0.023 0 0.030 0.010 0.010 0.013 0.007 0.020 0 0.030-0.081 0.050-0.201 0.127-0.359 0.235s-0.285 0.194-0.379 0.265c-0.007 0.007-0.017 0-0.027-0.013s-0.013-0.023-0.007-0.030c0.167-0.164 0.265-0.325 0.285-0.479s-0.023-0.312-0.141-0.463c-0.050-0.067-0.094-0.114-0.131-0.137s-0.074-0.030-0.114-0.017-0.090 0.040-0.157 0.090l-1.679 1.254c-0.074 0.057-0.124 0.104-0.147 0.144s-0.023 0.087-0.003 0.141c0.020 0.054 0.067 0.127 0.138 0.221 0.007 0.007 0 0.017-0.013 0.027s-0.023 0.013-0.030 0.007c-0.064-0.084-0.111-0.154-0.148-0.204l-0.218-0.302-0.214-0.282c-0.040-0.050-0.094-0.117-0.161-0.208-0.003-0.003 0.003-0.013 0.017-0.023s0.023-0.013 0.027-0.010c0.070 0.094 0.127 0.161 0.174 0.194 0.047 0.037 0.091 0.050 0.138 0.037 0.047-0.010 0.107-0.044 0.181-0.097l1.686-1.257c0.064-0.047 0.104-0.087 0.124-0.121s0.023-0.070 0.013-0.111c-0.010-0.040-0.040-0.094-0.091-0.161-0.107-0.151-0.241-0.238-0.405-0.265z"></path>
      </symbol>
      <symbol id="icon-pinterest" viewBox="0 0 33 32">
         <path d="M16.42 0c-8.838 0-16.004 7.163-16.004 15.996 0 6.549 3.944 12.176 9.581 14.654-0.043-1.114-0.007-2.457 0.279-3.671 0.307-1.3 2.058-8.719 2.058-8.719s-0.514-1.021-0.514-2.528c0-2.371 1.372-4.142 3.086-4.142 1.457 0 2.158 1.093 2.158 2.399 0 1.464-0.936 3.649-1.415 5.677-0.4 1.7 0.85 3.078 2.529 3.078 3.029 0 5.073-3.892 5.073-8.505 0-3.506-2.365-6.127-6.659-6.127-4.851 0-7.88 3.621-7.88 7.663 0 1.393 0.414 2.378 1.057 3.135 0.293 0.35 0.336 0.493 0.229 0.893-0.079 0.293-0.25 1-0.329 1.285-0.107 0.407-0.436 0.55-0.8 0.4-2.236-0.914-3.279-3.356-3.279-6.113 0-4.542 3.837-9.991 11.438-9.991 6.109 0 10.131 4.42 10.131 9.162 0 6.277-3.494 10.962-8.638 10.962-1.729 0-3.351-0.935-3.908-1.992 0 0-0.929 3.685-1.129 4.399-0.336 1.235-1 2.464-1.607 3.428 1.473 0.434 3.001 0.656 4.537 0.657 8.838 0 16.004-7.163 16.004-15.996s-7.159-16.004-15.996-16.004z"></path>
      </symbol>
      <symbol id="icon-quotes" viewBox="0 0 43 32">
         <path d="M6.929 29.923c2.18-0.936 4.084-2.358 5.71-4.267s2.605-3.855 2.938-5.839c0.185-1.048 0.277-1.946 0.277-2.695 0-0.861-0.092-1.572-0.277-2.133-1.737 1.834-3.936 2.751-6.597 2.751s-4.823-0.786-6.486-2.358c-1.663-1.572-2.495-3.743-2.495-6.512 0-2.62 0.887-4.753 2.661-6.4 1.737-1.647 3.954-2.47 6.652-2.47 3.696 0 6.393 1.347 8.093 4.042 0.776 1.16 1.386 2.582 1.829 4.267 0.443 1.722 0.665 3.481 0.665 5.277 0 3.93-0.998 7.523-2.993 10.779s-4.971 5.801-8.925 7.635l-1.053-2.077zM30.323 29.923c2.18-0.936 4.084-2.358 5.71-4.267s2.605-3.855 2.938-5.839c0.185-1.048 0.277-1.946 0.277-2.695 0-0.861-0.093-1.572-0.277-2.133-1.737 1.834-3.936 2.751-6.596 2.751s-4.823-0.786-6.486-2.358-2.495-3.743-2.495-6.512c0-2.62 0.887-4.753 2.661-6.4 1.737-1.647 3.954-2.47 6.652-2.47 3.696 0 6.393 1.347 8.093 4.042 0.776 1.16 1.386 2.582 1.829 4.267 0.443 1.722 0.665 3.481 0.665 5.277 0 3.93-0.998 7.523-2.993 10.779s-4.97 5.801-8.925 7.635l-1.053-2.077z"></path>
      </symbol>
      <symbol id="icon-twitter" viewBox="0 0 40 32">
         <path d="M38.81 3.656c-1.447 0.629-2.978 1.043-4.544 1.229 1.646-0.964 2.884-2.495 3.482-4.307-1.556 0.91-3.256 1.549-5.027 1.888-0.746-0.781-1.642-1.403-2.636-1.827s-2.063-0.642-3.143-0.64c-4.373 0-7.912 3.487-7.912 7.787-0.003 0.598 0.065 1.194 0.204 1.776-3.136-0.147-6.206-0.947-9.015-2.349s-5.294-3.374-7.297-5.792c-0.703 1.185-1.074 2.536-1.076 3.913 0 2.7 1.409 5.087 3.536 6.485-1.26-0.030-2.495-0.363-3.598-0.972v0.096c0 3.777 2.732 6.919 6.348 7.634-0.68 0.181-1.381 0.273-2.084 0.273-0.499 0.001-0.998-0.048-1.487-0.145 1.005 3.094 3.931 5.344 7.397 5.408-2.816 2.17-6.274 3.343-9.829 3.335-0.631-0.001-1.262-0.039-1.888-0.113 3.617 2.31 7.822 3.531 12.113 3.52 14.574 0 22.535-11.869 22.535-22.162 0-0.338-0.009-0.675-0.025-1.004 1.545-1.099 2.882-2.465 3.948-4.034z"></path>
      </symbol>
      <symbol id="icon-location" viewBox="0 0 32 32">
         <path d="M16 30.667c-0.738 1.107-0.74 1.109-0.74 1.109l0.74-1.109zM16.74 31.776c-0.448 0.299-1.032 0.298-1.48-0.001l-0.004-0.003-0.009-0.006-0.031-0.021c-0.026-0.018-0.063-0.043-0.11-0.076-0.095-0.066-0.231-0.161-0.402-0.285-0.343-0.248-0.829-0.609-1.409-1.072-1.159-0.923-2.709-2.257-4.262-3.897-3.053-3.223-6.365-7.881-6.365-13.084 0-3.536 1.405-6.928 3.905-9.428s5.892-3.905 9.428-3.905c3.536 0 6.928 1.405 9.428 3.905s3.905 5.892 3.905 9.428c0 5.203-3.312 9.861-6.365 13.084-1.554 1.64-3.103 2.974-4.262 3.897-0.581 0.462-1.066 0.824-1.409 1.072-0.172 0.124-0.308 0.219-0.402 0.285-0.047 0.033-0.084 0.058-0.11 0.076l-0.031 0.021-0.009 0.006-0.005 0.003zM16 2.667c-2.829 0-5.542 1.124-7.542 3.124s-3.124 4.713-3.124 7.542c0 4.131 2.688 8.139 5.635 11.25 1.446 1.527 2.897 2.776 3.988 3.645 0.406 0.323 0.76 0.593 1.044 0.802 0.284-0.21 0.639-0.479 1.044-0.802 1.091-0.868 2.541-2.118 3.988-3.645 2.947-3.111 5.635-7.119 5.635-11.25 0-2.829-1.124-5.542-3.124-7.542s-4.714-3.124-7.543-3.124zM16 8c-2.946 0-5.333 2.388-5.333 5.333s2.388 5.333 5.333 5.333c2.945 0 5.333-2.388 5.333-5.333s-2.388-5.333-5.333-5.333zM13.333 13.333c0-1.473 1.194-2.667 2.667-2.667s2.667 1.194 2.667 2.667c0 1.473-1.194 2.667-2.667 2.667s-2.667-1.194-2.667-2.667z"></path>
      </symbol>
      <symbol id="icon-calender" viewBox="0 0 32 32">
         <path d="M29.188 1.875h-1.046v-0.938c0-0.518-0.42-0.938-0.938-0.938s-0.938 0.42-0.938 0.938v0.938h-5.687v-0.938c0-0.518-0.42-0.938-0.938-0.938s-0.938 0.42-0.938 0.938v0.938h-5.625v-0.938c0-0.518-0.42-0.938-0.938-0.938s-0.938 0.42-0.938 0.938v0.938h-5.688v-0.938c0-0.518-0.42-0.938-0.938-0.938s-0.938 0.42-0.938 0.938v0.938h-0.829c-1.551 0-2.813 1.262-2.813 2.813 0 1.032 0 23.17 0 24.5 0 1.551 1.262 2.812 2.813 2.812h26.375c1.551 0 2.812-1.262 2.812-2.812 0-1.33 0-23.468 0-24.5 0-1.551-1.262-2.813-2.812-2.813zM30.125 29.188c0 0.517-0.421 0.938-0.938 0.938h-3.408l4.345-4.345v3.408zM24.454 28.799v-4.299h4.299l-4.299 4.299zM30.125 22.625h-6.608c-0.518 0-0.938 0.42-0.938 0.938v6.563h-19.767c-0.517 0-0.938-0.421-0.938-0.938v-19.813h28.25v13.25zM30.125 7.007c0 0.028 0 0.036 0 0.035 0 0.054 0 0.181 0 0.458h-28.25c0-0.879 0-0.345 0-2.813 0-0.517 0.421-0.938 0.938-0.938h0.829v0.938c0 0.518 0.42 0.938 0.938 0.938s0.938-0.42 0.938-0.938v-0.937h5.688v0.938c0 0.518 0.42 0.938 0.938 0.938s0.938-0.42 0.938-0.938v-0.938h5.625v0.938c0 0.518 0.42 0.938 0.938 0.938s0.938-0.42 0.938-0.938v-0.938h5.687v0.938c0 0.518 0.42 0.938 0.938 0.938s0.938-0.42 0.938-0.938v-0.938h1.046c0.517 0 0.938 0.421 0.938 0.938 0 1.709 0 2.199 0 2.319z"></path>
         <path d="M10.329 11.25h-3.812c-0.518 0-0.938 0.42-0.938 0.938v3.75c0 0.518 0.42 0.938 0.938 0.938h3.812c0.518 0 0.938-0.42 0.938-0.938v-3.75c0-0.518-0.42-0.938-0.938-0.938zM9.392 15h-1.938v-1.875h1.938v1.875zM10.329 18.875h-3.812c-0.518 0-0.938 0.42-0.938 0.938v3.75c0 0.518 0.42 0.938 0.938 0.938h3.812c0.518 0 0.938-0.42 0.938-0.938v-3.75c0-0.518-0.42-0.938-0.938-0.938zM9.392 22.625h-1.938v-1.875h1.938v1.875zM17.829 11.25h-3.75c-0.518 0-0.938 0.42-0.938 0.938v3.75c0 0.518 0.42 0.938 0.938 0.938h3.75c0.518 0 0.938-0.42 0.938-0.938v-3.75c0-0.518-0.42-0.938-0.938-0.938zM16.892 15h-1.875v-1.875h1.875v1.875zM17.829 18.875h-3.75c-0.518 0-0.938 0.42-0.938 0.938v3.75c0 0.518 0.42 0.938 0.938 0.938h3.75c0.518 0 0.938-0.42 0.938-0.938v-3.75c0-0.518-0.42-0.938-0.938-0.938zM16.892 22.625h-1.875v-1.875h1.875v1.875zM25.392 11.25h-3.812c-0.518 0-0.938 0.42-0.938 0.938v3.75c0 0.518 0.42 0.938 0.938 0.938h3.812c0.518 0 0.938-0.42 0.938-0.938v-3.75c0-0.518-0.42-0.938-0.938-0.938zM24.454 15h-1.938v-1.875h1.938v1.875z"></path>
      </symbol>
      <symbol id="icon-menu" viewBox="0 0 24 24">
         <path d="M17.484 14.344q1.219 0 2.531 0.234v1.5q-0.938-0.234-2.531-0.234-2.813 0-4.5 0.984v-1.688q1.781-0.797 4.5-0.797zM12.984 12.469q1.969-0.797 4.5-0.797 1.219 0 2.531 0.234v1.5q-0.938-0.234-2.531-0.234-2.813 0-4.5 0.984v-1.688zM17.484 10.5q-2.813 0-4.5 0.984v-1.641q1.875-0.844 4.5-0.844 1.219 0 2.531 0.234v1.547q-1.125-0.281-2.531-0.281zM21 18.516v-11.531q-1.547-0.469-3.516-0.469-3.047 0-5.484 1.5v11.484q2.438-1.5 5.484-1.5 1.828 0 3.516 0.516zM17.484 4.5q3.563 0 5.531 1.5v14.578q0 0.188-0.164 0.352t-0.352 0.164q-0.141 0-0.234-0.047-1.922-1.031-4.781-1.031-3.047 0-5.484 1.5-2.016-1.5-5.484-1.5-2.531 0-4.781 1.078-0.047 0-0.117 0.023t-0.117 0.023q-0.188 0-0.352-0.141t-0.164-0.328v-14.672q2.016-1.5 5.531-1.5 3.469 0 5.484 1.5 2.016-1.5 5.484-1.5z"></path>
      </symbol>
      <symbol id="icon-delivery" viewBox="0 0 24 24">
         <path d="M18.984 17.016q0.422 0 0.727-0.305t0.305-0.727-0.305-0.703-0.727-0.281-0.703 0.281-0.281 0.703 0.281 0.727 0.703 0.305zM18.984 12.984q1.219 0 2.109 0.891t0.891 2.109-0.891 2.109-2.109 0.891-2.109-0.891-0.891-2.109 0.891-2.109 2.109-0.891zM5.016 6h4.969v2.016h-4.969v-2.016zM6.984 17.016q0.422 0 0.727-0.305t0.305-0.727h-2.016q0 0.422 0.281 0.727t0.703 0.305zM18.984 6.984v3.375l-4.5 5.625h-4.5q0 1.219-0.891 2.109t-2.109 0.891-2.109-0.891-0.891-2.109h-1.969v-3q0-1.641 1.172-2.813t2.813-1.172h3.984v5.016h3.516l3.516-4.359v-2.672h-3v-1.969h3q0.797 0 1.383 0.586t0.586 1.383z"></path>
      </symbol>
      <symbol id="icon-pencil" viewBox="0 0 32 32">
         <path d="M27 0c2.761 0 5 2.239 5 5 0 1.126-0.372 2.164-1 3l-2 2-7-7 2-2c0.836-0.628 1.874-1 3-1zM2 23l-2 9 9-2 18.5-18.5-7-7-18.5 18.5zM22.362 11.362l-14 14-1.724-1.724 14-14 1.724 1.724z"></path>
      </symbol>
      <symbol id="icon-history" viewBox="0 0 34 32">
         <path d="M20 2c7.732 0 14 6.268 14 14s-6.268 14-14 14v-3c2.938 0 5.701-1.144 7.778-3.222s3.222-4.84 3.222-7.778c0-2.938-1.144-5.701-3.222-7.778s-4.84-3.222-7.778-3.222c-2.938 0-5.701 1.144-7.778 3.222-1.598 1.598-2.643 3.601-3.041 5.778h5.819l-7 8-7-8h5.143c0.971-6.784 6.804-12 13.857-12zM26 14v4h-8v-10h4v6z"></path>
      </symbol>
      <symbol id="icon-calendar" viewBox="0 0 32 32">
         <path d="M10 12h4v4h-4zM16 12h4v4h-4zM22 12h4v4h-4zM4 24h4v4h-4zM10 24h4v4h-4zM16 24h4v4h-4zM10 18h4v4h-4zM16 18h4v4h-4zM22 18h4v4h-4zM4 18h4v4h-4zM26 0v2h-4v-2h-14v2h-4v-2h-4v32h30v-32h-4zM28 30h-26v-22h26v22z"></path>
      </symbol>
      <symbol id="icon-truck" viewBox="0 0 32 32">
         <path d="M32 18l-4-8h-6v-4c0-1.1-0.9-2-2-2h-18c-1.1 0-2 0.9-2 2v16l2 2h2.536c-0.341 0.588-0.536 1.271-0.536 2 0 2.209 1.791 4 4 4s4-1.791 4-4c0-0.729-0.196-1.412-0.536-2h11.073c-0.341 0.588-0.537 1.271-0.537 2 0 2.209 1.791 4 4 4s4-1.791 4-4c0-0.729-0.196-1.412-0.537-2h2.537v-6zM22 18v-6h4.146l3 6h-7.146z"></path>
      </symbol>
   </defs>
</svg>
